<?xml version="1.0" encoding="utf-8"?>
<!-- Generator: Adobe Illustrator 16.0.0, SVG Export Plug-In . SVG Version: 6.00 Build 0)  -->
<!DOCTYPE svg PUBLIC "-//W3C//DTD SVG 1.1//EN" "http://www.w3.org/Graphics/SVG/1.1/DTD/svg11.dtd">
<svg version="1.1" id="图层_1" xmlns="http://www.w3.org/2000/svg" xmlns:xlink="http://www.w3.org/1999/xlink" x="0px" y="0px"
	 width="605px" height="255px" viewBox="0 0 605 255" enable-background="new 0 0 605 255" xml:space="preserve">
<g id="svg_2" transform="matrix(1.53631, 0, 0, 1.53631, -71.324, -69.4492)">
	<g id="svg_7">
		<g id="svg_8">
			<path id="svg_9" fill="#FFFFFF" d="M145.242,205.924c-30.482,11.673-65.557-1.303-80.694-30.991
				c-14.914-29.351-5.244-64.727,21.239-82.703c-19.959,20.08-25.786,51.33-12.254,77.882
				C87.27,197.179,116.833,210.997,145.242,205.924z"/>
		</g>
		<g id="svg_10">
			<path id="svg_11" fill="#FFFFFF" d="M187.042,179.633c-21.533,24.497-58.655,29.295-85.877,9.975
				c-26.848-19.038-34.723-54.838-19.51-83.068c-8.385,27.03,0.932,57.429,25.271,74.727c24.712,17.578,57.277,15.99,80.116-1.636
				L187.042,179.633z"/>
		</g>
		<g id="svg_12">
			<polygon id="svg_13" fill="#FFFFFF" points="94.498,52.766 112.37,60.193 124.976,45.569 123.449,64.85 141.322,72.278 
				122.484,76.766 120.882,96.077 110.769,79.506 91.931,83.993 104.582,69.264 			"/>
		</g>
		<g id="svg_14">
			<path id="svg_15" fill="#FFFFFF" d="M93.466,61.526l5.28,8.627c-0.443,0.178-0.962,0.388-1.407,0.567
				c-35.974,14.484-54.124,54.221-42.276,90.482c-0.669-1.45-1.37-2.974-1.966-4.455C37.914,119.248,56.041,76.68,93.466,61.526z"/>
		</g>
		<g id="svg_16">
			<path id="svg_17" fill="#FFFFFF" d="M176.403,81.637c-11.535-9.206-31.864-15.043-46.639-16.059l0.705-8.716
				C148.153,59.119,164.59,67.898,176.403,81.637z"/>
		</g>
	</g>
</g>
<g id="svg_34">
	<path id="svg_35" fill="#FFFFFF" d="M110.078,88.231h17.299l17.668,59.103l16.484-59.103h18.604l16.485,59.103l17.65-59.103h17.191
		l-25.318,78.535h-19.064l-16.254-56.627l-16.239,56.627h-19.081L110.078,88.231L110.078,88.231z"/>
	<path id="svg_36" fill="#FFFFFF" d="M271.726,88.231h28.146v14.013h-21.785c-5.644,0-9.761,0.395-12.353,1.182
		c-2.592,0.779-4.752,2.312-6.482,4.595l0,0c-1.178,1.567-1.982,3.135-2.412,4.701c-0.432,1.577-0.805,4.245-1.123,8.004l0,0h44.155
		v14.012h-44.155c0.625,6.75,2.629,11.441,6.008,14.072c3.381,2.633,9.111,3.948,17.192,3.948l0,0h20.955v14.011h-21.785
		c-5.88,0-11.058-0.353-15.532-1.06l0,0c-7.066-1.178-12.68-4.276-16.838-9.295l0,0c-5.971-7.229-8.957-17.008-8.957-29.328l0,0
		c0-13.651,4.199-24.289,12.598-31.91l0,0c2.908-2.59,5.992-4.393,9.248-5.406C261.863,88.744,266.236,88.231,271.726,88.231
		L271.726,88.231L271.726,88.231z"/>
	<path id="svg_37" fill="#FFFFFF" d="M324.949,166.769h-19.541l32.491-78.536h19.189l32.508,78.536h-19.543l-7.666-18.127H332.6
		L324.949,166.769L324.949,166.769z M358.748,134.629l-11.185-27.438l-11.186,27.438H358.748z"/>
	<path id="svg_38" fill="#FFFFFF" d="M414.783,166.769h-16.716V88.232h16.716V166.769z"/>
	<path id="svg_39" fill="#FFFFFF" d="M430.33,88.231h24.381l19.543,61.347l20.602-61.347h24.365v78.535h-15.885v-58.871
		l-20.494,58.871H465.65l-19.42-58.871v58.871h-15.899L430.33,88.231L430.33,88.231z"/>
	<path id="svg_40" fill="#FFFFFF" d="M556.666,166.769v-34.381l-29.082-44.155h19.557l18.006,30.728l18.957-30.728H604
		l-30.604,44.737v33.799H556.666L556.666,166.769z"/>
</g>
</svg>
