<?xml version="1.0" encoding="utf-8"?>
<!-- Generator: Adobe Illustrator 16.0.0, SVG Export Plug-In . SVG Version: 6.00 Build 0)  -->
<!DOCTYPE svg PUBLIC "-//W3C//DTD SVG 1.1//EN" "http://www.w3.org/Graphics/SVG/1.1/DTD/svg11.dtd">
<svg version="1.1" id="图层_1" xmlns="http://www.w3.org/2000/svg" xmlns:xlink="http://www.w3.org/1999/xlink" x="0px" y="0px"
	 width="605px" height="255px" viewBox="0 0 605 255" enable-background="new 0 0 605 255" xml:space="preserve">
<g>
	<g id="svg_2" transform="matrix(1.53631, 0, 0, 1.53631, -71.324, -69.4492)">
		<g id="svg_7">
			<g id="svg_8">
				<path id="svg_9" fill="#F2C31E" d="M115.7,211.075c-33.594-0.576-62.097-26.45-65.137-60.619
					c-2.956-33.76,19.878-63.822,52.077-70.804c-26.778,11.499-44.355,39.098-41.644,69.654
					C63.706,180.436,86.623,204.995,115.7,211.075z"/>
			</g>
			<g id="svg_10">
				<path id="svg_11" fill="#292829" d="M165.722,202.04c-29.98,15.113-67.271,5.421-85.835-23.493
					c-18.317-28.501-12.074-65.711,13.307-86.82c-18.4,22.587-21.191,55.196-4.6,81.07c16.838,26.286,48.544,37.291,77.128,29.241
					V202.04z"/>
			</g>
			<g id="svg_12">
				<polygon id="svg_13" fill="#F2C31E" points="126.131,45.318 140.342,59.281 158.002,50.164 149.13,67.988 163.341,81.952 
					143.627,78.995 134.674,96.818 131.388,77.106 111.675,74.148 129.418,64.949 				"/>
			</g>
			<g id="svg_14">
				<path id="svg_15" fill="#292829" d="M121.778,53.285l1.725,10.268c-0.493,0-1.068,0-1.561,0
					c-39.919,0-72.528,30.966-75.157,70.146c-0.081-1.643-0.164-3.368-0.164-5.01C46.54,87.045,80.217,53.367,121.778,53.285z"/>
			</g>
			<g id="svg_16">
				<path id="svg_17" fill="#292829" d="M193.24,104.376c-7.475-13.225-24.642-26.614-38.36-33.266l4.025-8.051
					C174.923,72.013,187.243,86.715,193.24,104.376z"/>
			</g>
		</g>
	</g>
	<g id="svg_34">
		<path id="svg_35" fill="#040000" stroke="#040000" stroke-width="0.128" d="M110.778,112.233h17.299l17.668,59.102l16.484-59.102
			h18.604l16.485,59.102l17.65-59.102h17.191l-25.318,78.535h-19.064l-16.254-56.627l-16.239,56.627h-19.081L110.778,112.233
			L110.778,112.233z"/>
		<path id="svg_36" fill="#040000" stroke="#040000" stroke-width="0.128" d="M272.426,112.233h28.146v14.012h-21.785
			c-5.644,0-9.761,0.395-12.353,1.182c-2.592,0.779-4.752,2.311-6.482,4.594l0,0c-1.178,1.568-1.982,3.135-2.412,4.701
			c-0.432,1.578-0.805,4.246-1.123,8.004l0,0h44.155v14.012h-44.155c0.625,6.75,2.629,11.441,6.008,14.072
			c3.381,2.633,9.111,3.949,17.192,3.949l0,0h20.955v14.01h-21.785c-5.88,0-11.058-0.352-15.532-1.059l0,0
			c-7.066-1.178-12.68-4.277-16.838-9.295l0,0c-5.971-7.23-8.957-17.008-8.957-29.328l0,0c0-13.652,4.199-24.289,12.598-31.91l0,0
			c2.908-2.59,5.992-4.393,9.248-5.406C262.563,112.745,266.936,112.233,272.426,112.233L272.426,112.233L272.426,112.233z"/>
		<path id="svg_37" fill="#040000" stroke="#040000" stroke-width="0.128" d="M325.649,190.769h-19.541l32.492-78.535h19.189
			l32.508,78.535h-19.543l-7.666-18.127H333.3L325.649,190.769L325.649,190.769z M359.448,158.63l-11.184-27.439l-11.186,27.439
			H359.448z"/>
		<path id="svg_38" fill="#040000" stroke="#040000" stroke-width="0.128" d="M415.483,190.769h-16.715v-78.535h16.715V190.769z"/>
		<path id="svg_39" fill="#040000" stroke="#040000" stroke-width="0.128" d="M431.03,112.233h24.381l19.543,61.346l20.602-61.346
			h24.365v78.535h-15.885v-58.871l-20.494,58.871h-17.191l-19.42-58.871v58.871h-15.9V112.233L431.03,112.233z"/>
		<path id="svg_40" fill="#040000" stroke="#040000" stroke-width="0.128" d="M557.366,190.769v-34.381l-29.082-44.154h19.557
			l18.006,30.727l18.957-30.727H604.7l-30.604,44.736v33.799H557.366L557.366,190.769z"/>
	</g>
</g>
</svg>
